# File created by Blade
# Date/Time:  Fri Jan 16 17:53:05 2015
# Frame Rate: 120.000 fps
#------------------------------------------------------
:FULLY-SPECIFIED
:DEGREES
1955
root -2.941203 35.398712 -11.704689 -3.029814 3.944722 -10.285236
Spine 1.163504 -11.620321 9.476119
Head 5.785185 -0.165868 -4.396456
LeftShoulder -19.854178 15.369099 -7.391327
LeftArm 26.272400 -19.584595 -71.382215
LeftForeArm 6.146439 -0.000000 125.988217
LeftHand 1.255878 0.000000 14.595700
LeftHandThumb1 -26.253704 0.000000 33.147579
RightShoulder -5.331910 -6.324105 0.029834
RightArm 1.318690 -23.044290 75.040204
RightForeArm -14.198363 -0.000000 18.307011
RightHand 0.475816 0.000000 1.182408
RightHandThumb1 -24.326973 -0.000000 -32.862282
LeftUpLeg 10.735776 3.148756 -0.761123
LeftLeg -9.424029 -0.000000 0.000000
LeftFoot -13.527544 25.709881 -5.089076
LeftToeBase 18.729871 -0.000000 -0.000000
RightUpLeg -2.068461 2.595725 12.470945
RightLeg 9.955909 -0.000000 -0.000000
RightFoot -3.693215 -32.170271 -0.044586
RightToeBase -4.912153 -0.000000 0.000000
1956
root -2.943196 35.398219 -11.709695 -2.993023 3.945957 -10.284076
Spine 1.168819 -11.627109 9.450725
Head 5.740604 -0.183097 -4.344509
LeftShoulder -19.857865 15.367926 -7.349595
LeftArm 26.260132 -19.594661 -71.414658
LeftForeArm 6.107666 -0.000000 126.005374
LeftHand 1.314776 0.000000 14.624987
LeftHandThumb1 -26.253704 0.000000 33.147579
RightShoulder -5.331305 -6.316047 0.059558
RightArm 1.332535 -23.051435 75.037451
RightForeArm -14.274283 0.000000 18.316259
RightHand 0.446983 0.000000 0.862608
RightHandThumb1 -24.326973 -0.000000 -32.862282
LeftUpLeg 10.696508 3.159965 -0.761080
LeftLeg -9.434078 -0.000000 0.000000
LeftFoot -13.511747 25.696951 -5.082391
LeftToeBase 18.689908 -0.000000 -0.000000
RightUpLeg -2.103227 2.693036 12.438501
RightLeg 9.970345 -0.000000 -0.000000
RightFoot -3.693245 -32.006745 -0.021783
RightToeBase -4.996186 -0.000000 0.000000
1957
root -2.942574 35.397117 -11.712586 -2.969937 3.935954 -10.268648
Spine 1.186994 -11.619278 9.413210
Head 5.704066 -0.198659 -4.300221
LeftShoulder -19.846863 15.377208 -7.331903
LeftArm 26.257810 -19.635241 -71.427634
LeftForeArm 6.046721 -0.000000 126.041013
LeftHand 1.279120 -0.000000 14.487358
LeftHandThumb1 -26.253704 0.000000 33.147579
RightShoulder -5.341257 -6.303485 0.081138
RightArm 1.342658 -23.061185 75.041923
RightForeArm -14.299925 0.000000 18.311131
RightHand 0.467046 -0.000000 0.796243
RightHandThumb1 -24.326973 -0.000000 -32.862282
LeftUpLeg 10.674449 3.215591 -0.775194
LeftLeg -9.444767 -0.000000 0.000000
LeftFoot -13.509897 25.669753 -5.088006
LeftToeBase 18.723169 -0.000000 -0.000000
RightUpLeg -2.122412 2.686325 12.397776
RightLeg 9.970568 -0.000000 -0.000000
RightFoot -3.707302 -31.862469 -0.057656
RightToeBase -4.927228 -0.000000 0.000000
1958
root -2.944110 35.396151 -11.715946 -2.946690 3.934475 -10.258250
Spine 1.210114 -11.616968 9.372592
Head 5.657792 -0.255342 -4.250567
LeftShoulder -19.831460 15.358748 -7.301990
LeftArm 26.247193 -19.693581 -71.437676
LeftForeArm 6.004406 -0.000000 126.062855
LeftHand 1.302624 -0.000000 14.500699
LeftHandThumb1 -26.253704 0.000000 33.147579
RightShoulder -5.350148 -6.314489 0.114507
RightArm 1.372782 -23.045249 75.035530
RightForeArm -14.314350 -0.000000 18.320793
RightHand 0.455632 -0.000000 0.804796
RightHandThumb1 -24.326973 -0.000000 -32.862282
LeftUpLeg 10.654553 3.236782 -0.783603
LeftLeg -9.459310 -0.000000 0.000000
LeftFoot -13.498331 25.651239 -5.087427
LeftToeBase 18.752123 -0.000000 -0.000000
RightUpLeg -2.146177 2.650946 12.365662
RightLeg 9.967630 -0.000000 -0.000000
RightFoot -3.710762 -31.736356 -0.107398
RightToeBase -5.006099 -0.000000 0.000000
1959
root -2.946732 35.395052 -11.718719 -2.933715 3.935084 -10.253100
Spine 1.249951 -11.622832 9.327886
Head 5.606619 -0.304202 -4.194187
LeftShoulder -19.831298 15.361174 -7.264856
LeftArm 26.271454 -19.751247 -71.479630
LeftForeArm 6.016385 -0.000000 126.081456
LeftHand 1.295550 -0.000000 14.421627
LeftHandThumb1 -26.253704 0.000000 33.147579
RightShoulder -5.364315 -6.246440 0.147708
RightArm 1.329450 -23.096845 75.050656
RightForeArm -14.284986 -0.000000 18.334099
RightHand 0.462806 -0.000000 0.813752
RightHandThumb1 -24.326973 -0.000000 -32.862282
LeftUpLeg 10.647726 3.268835 -0.782653
LeftLeg -9.483363 -0.000000 0.000000
LeftFoot -13.484393 25.633160 -5.072867
LeftToeBase 18.753213 -0.000000 -0.000000
RightUpLeg -2.161996 2.668327 12.335653
RightLeg 9.977545 -0.000000 -0.000000
RightFoot -3.734655 -31.589549 -0.088479
RightToeBase -4.888427 -0.000000 0.000000
1960
root -2.949243 35.394698 -11.722224 -2.906543 3.934547 -10.256330
Spine 1.266510 -11.626034 9.305884
Head 5.567054 -0.342262 -4.155283
LeftShoulder -19.840904 15.358551 -7.258288
LeftArm 26.303986 -19.813999 -71.494913
LeftForeArm 5.977943 -0.000000 126.094286
LeftHand 1.225203 0.000000 14.396309
LeftHandThumb1 -26.253704 0.000000 33.147579
RightShoulder -5.371938 -6.222368 0.164227
RightArm 1.302775 -23.064385 75.080024
RightForeArm -14.295945 -0.000000 18.378041
RightHand 0.384223 -0.000000 0.849865
RightHandThumb1 -24.326973 -0.000000 -32.862282
LeftUpLeg 10.626633 3.301241 -0.774197
LeftLeg -9.507258 -0.000000 0.000000
LeftFoot -13.466156 25.606097 -5.050653
LeftToeBase 18.745927 -0.000000 -0.000000
RightUpLeg -2.190023 2.742361 12.303738
RightLeg 9.984575 -0.000000 -0.000000
RightFoot -3.789536 -31.436493 0.047865
RightToeBase -4.918297 -0.000000 0.000000
